<svg version="1.1" xmlns="http://www.w3.org/2000/svg" xmlns:xlink="http://www.w3.org/1999/xlink" width="800px" height="800px" viewBox="0,0,256,256"><g transform=""><g fill="#000000" fill-rule="evenodd" stroke="none" stroke-width="1" stroke-linecap="butt" stroke-linejoin="miter" stroke-miterlimit="10" stroke-dasharray="" stroke-dashoffset="0" font-family="none" font-weight="none" font-size="none" text-anchor="none" style="mix-blend-mode: normal"><g transform="translate(0,-0.00047) scale(12.8,12.8)"><g id="Page-1"><g transform="translate(-140,-7559)" id="Dribbble-Light-Preview"><g transform="translate(56,160)" id="icons"><path d="M94,7399c5.523,0 10,4.59 10,10.253c0,4.529 -2.862,8.371 -6.833,9.728c-0.507,0.101 -0.687,-0.219 -0.687,-0.492c0,-0.338 0.012,-1.442 0.012,-2.814c0,-0.956 -0.32,-1.58 -0.679,-1.898c2.227,-0.254 4.567,-1.121 4.567,-5.059c0,-1.12 -0.388,-2.034 -1.03,-2.752c0.104,-0.259 0.447,-1.302 -0.098,-2.714c0,0 -0.838,-0.275 -2.747,1.051c-0.799,-0.227 -1.655,-0.341 -2.505,-0.345c-0.85,0.004 -1.705,0.118 -2.503,0.345c-1.911,-1.326 -2.751,-1.051 -2.751,-1.051c-0.543,1.412 -0.2,2.455 -0.097,2.714c-0.639,0.718 -1.03,1.632 -1.03,2.752c0,3.928 2.335,4.808 4.556,5.067c-0.286,0.256 -0.545,0.708 -0.635,1.371c-0.57,0.262 -2.018,0.715 -2.91,-0.852c0,0 -0.529,-0.985 -1.533,-1.057c0,0 -0.975,-0.013 -0.068,0.623c0,0 0.655,0.315 1.11,1.5c0,0 0.587,1.83 3.369,1.21c0.005,0.857 0.014,1.665 0.014,1.909c0,0.271 -0.184,0.588 -0.683,0.493c-3.974,-1.355 -6.839,-5.199 -6.839,-9.729c0,-5.663 4.478,-10.253 10,-10.253" id="github-[#142]"></path></g></g></g></g></g></g></svg>