<svg version="1.1" xmlns="http://www.w3.org/2000/svg" xmlns:xlink="http://www.w3.org/1999/xlink" width="800px" height="800px" viewBox="0,0,256,256"><g fill="none" fill-rule="nonzero" stroke="none" stroke-width="1" stroke-linecap="butt" stroke-linejoin="miter" stroke-miterlimit="10" stroke-dasharray="" stroke-dashoffset="0" font-family="none" font-weight="none" font-size="none" text-anchor="none" style="mix-blend-mode: normal"><g transform="translate(-0.06253,0.975) scale(0.25,0.25)"><path d="M854.7,828.1h-684.8c-38.9,0 -70.5,-31.6 -70.5,-70.5v-499c0,-38.9 31.6,-70.5 70.5,-70.5h684.7c38.9,0 70.5,31.6 70.5,70.5v499c0.1,38.9 -31.5,70.5 -70.4,70.5z" fill="#ffffff"></path><path d="M885.2,258.1c0,-16.5 -13.5,-30 -30,-30h-685.8c-16.5,0 -30,13.5 -30,30v120.1h745.7v-120.1zM235.5,354.2c-28.2,0 -51.2,-23 -51.2,-51.2c0,-28.2 23,-51.2 51.2,-51.2c28.2,0 51.2,23 51.2,51.2c0,28.2 -22.9,51.2 -51.2,51.2zM517.3,347.4h-142.6c-24.1,0 -43.7,-19.6 -43.7,-43.7c0,-24.1 19.6,-43.7 43.7,-43.7h142.6c24.1,0 43.7,19.6 43.7,43.7c0,24.1 -19.6,43.7 -43.7,43.7z" fill="#e6e6e6"></path><path d="M213.3,752.8h298.8c5.5,0 10,-4.5 10,-10c0,-5.5 -4.5,-10 -10,-10h-298.8c-8.5,0 -15.4,-6.9 -15.4,-15.4v-192.8c0,-5.5 -4.5,-10 -10,-10c-5.5,0 -10,4.5 -10,10v192.9c0.1,19.4 15.9,35.3 35.4,35.3z" fill="#c23838"></path><path d="M235.5,271.8c-17.2,0 -31.2,14 -31.2,31.2c0,17.2 14,31.2 31.2,31.2c17.2,0 31.2,-14 31.2,-31.2c0,-17.2 -14,-31.2 -31.2,-31.2z" fill="#ffffff"></path><path d="M235.5,251.8c-28.2,0 -51.2,23 -51.2,51.2c0,28.2 23,51.2 51.2,51.2c28.2,0 51.2,-23 51.2,-51.2c0,-28.2 -22.9,-51.2 -51.2,-51.2zM235.5,334.2c-17.2,0 -31.2,-14 -31.2,-31.2c0,-17.2 14,-31.2 31.2,-31.2c17.2,0 31.2,14 31.2,31.2c0,17.2 -14,31.2 -31.2,31.2z" fill="#860000"></path><path d="M517.3,280.1h-142.6c-13,0 -23.7,10.6 -23.7,23.7c0,13.1 10.6,23.7 23.7,23.7h142.6c13,0 23.7,-10.6 23.7,-23.7c0,-13.1 -10.7,-23.7 -23.7,-23.7z" fill="#ffffff"></path><path d="M517.3,260.1h-142.6c-24.1,0 -43.7,19.6 -43.7,43.7c0,24.1 19.6,43.7 43.7,43.7h142.6c24.1,0 43.7,-19.6 43.7,-43.7c0,-24.1 -19.6,-43.7 -43.7,-43.7zM517.3,327.4h-142.6c-13,0 -23.7,-10.6 -23.7,-23.7c0,-13.1 10.6,-23.7 23.7,-23.7h142.6c13,0 23.7,10.6 23.7,23.7c0,13.1 -10.7,23.7 -23.7,23.7z" fill="#860000"></path><path d="M855.2,188.1h-685.8c-38.6,0 -70,31.4 -70,70v500c0,38.6 31.4,70 70,70h685.7c38.6,0 70,-31.4 70,-70v-500c0.1,-38.6 -31.3,-70 -69.9,-70zM885.2,758.1c0,16.5 -13.5,30 -30,30h-685.8c-16.5,0 -30,-13.5 -30,-30v-359.9h745.7v359.9zM885.2,378.2h-745.7v-120.1c0,-16.5 13.5,-30 30,-30h685.7c16.5,0 30,13.5 30,30z" fill="#860000"></path><path d="M459.9,624.6l-114.3,-45.3l114.3,-43.7v-46.5l-163.8,70.9v39.5l163.8,71.2zM568.7,454.8h-34.4l-59.2,247.2h33.8zM747.9,560.3l-164,-70.9v45.8l114.4,44.5l-114.4,45v46.2l164,-71.4z" fill="#860000"></path></g></g></svg>